# Blender v2.77 (sub 0) OBJ File: 'Laser rifle.blend'
# www.blender.org
mtllib laserriflleuvfix.mtl
o laser_rifle_Cube.002
v -4.732430 0.651547 0.409795
v -4.732430 1.224530 0.409795
v -3.390862 0.433839 0.422284
v -3.390862 1.224530 0.409795
v 1.082821 0.651547 0.409796
v 1.082821 1.224530 0.409796
v -3.390862 0.178344 0.409795
v 1.082821 0.413303 0.430970
v -0.370722 1.224530 0.409795
v -0.370722 0.794015 0.434926
v -0.154721 0.413303 0.409795
v -3.824898 1.224530 0.409795
v -3.824898 0.433839 0.409795
v -4.732430 0.287564 0.409795
v -3.824898 0.287564 0.409795
v -0.009128 -0.195541 0.048912
v -0.273843 0.022849 0.078916
v -0.041800 -0.722820 0.095433
v -0.549008 -0.740686 0.095433
v -0.564999 -0.498542 0.088539
v -0.092377 -0.544570 0.087394
v 1.596447 -0.837531 0.110617
v 1.040420 -0.465542 0.082121
v 0.153731 -0.491392 0.069514
v 1.299297 -0.075952 0.201974
v 2.795324 -0.609812 0.074387
v 3.566522 0.172859 0.109483
v 2.142144 -0.554957 0.071713
v 1.853707 0.339679 0.112363
v 4.445823 -1.419469 0.070193
v 4.554932 0.241529 0.106922
v -4.516809 -0.743941 0.095432
v -4.532801 -0.501797 0.088538
v -4.165763 -0.501496 0.088538
v -4.149771 -0.743640 0.095432
v -4.533427 0.305697 0.088538
v -4.166389 0.305998 0.088538
v -3.390862 0.023941 0.409795
v 0.512044 0.794015 0.434926
v 0.544815 1.224530 0.409795
v 0.378772 0.413303 0.418923
v -4.732430 0.651547 -0.409796
v -4.732430 1.224530 -0.409796
v -3.390862 0.433839 -0.422284
v -3.390862 1.224530 -0.409796
v 1.082821 0.651547 -0.409795
v 1.082821 1.224530 -0.409795
v -3.390862 0.178344 -0.409796
v 1.082821 0.413303 -0.430969
v -0.370721 1.224530 -0.434539
v -0.370721 0.794015 -0.454933
v -0.154721 0.413303 -0.409795
v -3.824898 1.224530 -0.409796
v -3.824898 0.433839 -0.409796
v -4.732430 0.287564 -0.409796
v -3.824898 0.287564 -0.409796
v -0.009128 -0.195541 -0.048912
v -0.273843 0.022849 -0.078916
v -0.041799 -0.722820 -0.095433
v -0.549008 -0.740686 -0.095433
v -0.564999 -0.498542 -0.088539
v -0.092377 -0.544570 -0.087394
v 1.596447 -0.837531 -0.110616
v 1.040420 -0.465542 -0.082121
v 0.153731 -0.491392 -0.069514
v 1.299297 -0.075952 -0.201974
v 2.795324 -0.609812 -0.074387
v 3.566522 0.172859 -0.109482
v 2.142144 -0.554957 -0.071712
v 1.853707 0.339679 -0.112363
v 4.445823 -1.419469 -0.070192
v 4.554932 0.241529 -0.106921
v -4.516809 -0.743941 -0.095433
v -4.532801 -0.501797 -0.088539
v -4.165763 -0.501496 -0.088539
v -4.149771 -0.743640 -0.095433
v -4.533427 0.305697 -0.088539
v -4.166389 0.305998 -0.088539
v -3.390862 0.023941 -0.409796
v -4.732430 1.224530 -0.000001
v -4.732430 0.651547 -0.000001
v -3.390862 1.224530 -0.000000
v -3.390862 0.433839 -0.000000
v 1.082821 1.224530 0.000000
v 1.082821 0.651547 0.000000
v -3.390862 0.178344 -0.000000
v 1.082821 0.413303 0.000000
v -0.370721 1.224530 -0.000000
v -3.824898 1.224530 -0.000000
v -3.824898 0.433839 -0.000000
v -4.732430 0.287564 -0.000001
v -3.824898 0.287564 -0.000000
v -0.009128 -0.195541 -0.000000
v -0.273843 0.022849 -0.000000
v -0.041799 -0.722820 -0.000000
v -0.549008 -0.740686 -0.000000
v -0.092377 -0.544570 -0.000000
v -0.564999 -0.498542 -0.000000
v 1.596447 -0.837531 0.000000
v 1.040420 -0.465542 0.000000
v 0.153731 -0.491392 0.000000
v 1.299297 -0.075952 0.000000
v 2.795324 -0.609812 0.000000
v 3.566522 0.172859 0.000000
v 2.142144 -0.554957 0.000000
v 1.841638 0.364696 0.000000
v 4.445823 -1.419469 0.000001
v 4.554932 0.241529 0.000001
v -4.516809 -0.743941 -0.000001
v -4.532801 -0.501797 -0.000001
v -4.165763 -0.501496 -0.000000
v -4.149771 -0.743640 -0.000000
v -4.533427 0.305697 -0.000001
v -4.166389 0.305998 -0.000000
v -3.390862 0.023941 -0.000000
v 0.512044 0.794015 -0.430189
v 0.544815 1.224530 -0.433024
v 0.378773 0.413303 -0.418923
v 0.551395 1.224530 0.000000
v 0.512044 0.943377 0.661901
v -0.370722 0.943377 0.661901
v -0.370722 1.324104 0.612114
v -0.370722 1.396870 0.340851
v 0.544815 1.324104 0.612114
v 0.551395 1.396870 0.340851
vt 0.1125 0.3048
vt 0.0468 0.3168
vt 0.0380 0.2732
vt 0.1046 0.2302
vt 0.1144 0.3543
vt 0.0478 0.3543
vt 0.1006 0.1801
vt 0.1260 0.1651
vt 0.1523 0.2168
vt 0.5319 0.7533
vt 0.5319 0.7722
vt 0.5135 0.7722
vt 0.5135 0.7533
vt 0.4689 0.3543
vt 0.4685 0.3360
vt 0.4904 0.3181
vt 0.4968 0.3543
vt 0.9567 0.8293
vt 0.9641 0.9186
vt 0.9833 0.8398
vt 0.9671 0.7829
vt 0.4021 0.2708
vt 0.1676 0.1888
vt 0.4248 0.2344
vt 0.8917 0.9490
vt 0.7542 0.9490
vt 0.7542 0.8657
vt 0.8917 0.8657
vt 0.1845 0.1510
vt 0.1737 0.1072
vt 0.4303 0.1615
vt 0.4293 0.1708
vt 0.1419 0.1435
vt 0.5055 0.3028
vt 0.5154 0.3543
vt 0.1512 0.3012
vt 0.3971 0.3142
vt 0.4583 0.2939
vt 0.4617 0.2572
vt 0.1520 0.3543
vt 0.3951 0.3543
vt 0.5018 0.7722
vt 0.5018 0.7533
vt 0.0273 0.2347
vt 0.0206 0.1903
vt 0.0797 0.1776
vt 0.0779 0.2101
vt 0.0741 0.6852
vt 0.1287 0.6491
vt 0.1313 0.6950
vt 0.0837 0.7082
vt 0.4617 0.1593
vt 0.6425 0.1734
vt 0.5901 0.3017
vt 0.5734 0.1952
vt 0.1321 0.7140
vt 0.0781 0.7212
vt 0.0655 0.6934
vt 0.6220 0.7152
vt 0.6342 0.6669
vt 0.6743 0.7098
vt 0.6566 0.7273
vt 0.0648 0.5921
vt 0.0698 0.5803
vt 0.1319 0.6342
vt 0.0441 0.6434
vt 0.0488 0.6392
vt 0.6423 0.1579
vt 0.5742 0.1810
vt 0.4935 0.1473
vt 0.4935 0.1371
vt 0.5894 0.3019
vt 0.7073 0.1882
vt 0.7076 0.1763
vt 0.7824 0.1648
vt 0.7843 0.1761
vt 0.5903 0.3543
vt 0.4601 0.1524
vt 0.8273 0.3149
vt 0.9720 0.0690
vt 0.9792 0.3097
vt 0.6879 0.3349
vt 0.6879 0.3543
vt 0.8280 0.3353
vt 0.5909 0.3543
vt 0.0660 0.8299
vt 0.0657 0.7998
vt 0.2827 0.8120
vt 0.2828 0.8252
vt 0.9692 0.0587
vt 0.9793 0.3342
vt 0.6799 0.7209
vt 0.6587 0.7420
vt 0.6207 0.7316
vt 0.6310 0.6498
vt 0.5136 0.7913
vt 0.5136 0.7954
vt 0.5018 0.7954
vt 0.5018 0.7913
vt 0.7243 0.5876
vt 0.7449 0.6306
vt 0.7509 0.6418
vt 0.7185 0.5738
vt 0.4502 0.3267
vt 0.4481 0.3543
vt 0.1125 0.4038
vt 0.1046 0.4784
vt 0.0380 0.4354
vt 0.0468 0.3918
vt 0.1523 0.4918
vt 0.1260 0.5435
vt 0.1006 0.5285
vt 0.5319 0.7911
vt 0.5135 0.7911
vt 0.4904 0.3904
vt 0.4685 0.3726
vt 0.4502 0.3818
vt 0.3971 0.3943
vt 0.4021 0.4378
vt 0.4248 0.4742
vt 0.1676 0.5198
vt 0.4583 0.4147
vt 0.1845 0.5576
vt 0.4293 0.5377
vt 0.4303 0.5471
vt 0.1737 0.6014
vt 0.1419 0.5651
vt 0.5055 0.4058
vt 0.1512 0.4073
vt 0.4617 0.4514
vt 0.5018 0.7911
vt 0.0273 0.4739
vt 0.0779 0.4985
vt 0.0797 0.5310
vt 0.0206 0.5182
vt 0.0742 0.6859
vt 0.0838 0.7089
vt 0.1315 0.6956
vt 0.1288 0.6498
vt 0.4617 0.5493
vt 0.6425 0.5352
vt 0.5734 0.5134
vt 0.5901 0.4069
vt 0.0783 0.7219
vt 0.1323 0.7147
vt 0.0656 0.6941
vt 0.6221 0.7159
vt 0.6567 0.7280
vt 0.6744 0.7105
vt 0.6343 0.6676
vt 0.0650 0.5928
vt 0.1320 0.6349
vt 0.0699 0.5810
vt 0.0442 0.6441
vt 0.0490 0.6399
vt 0.6423 0.5507
vt 0.5742 0.5276
vt 0.4935 0.5613
vt 0.4935 0.5715
vt 0.5894 0.4067
vt 0.7073 0.5204
vt 0.7843 0.5325
vt 0.7824 0.5438
vt 0.7076 0.5323
vt 0.4601 0.5562
vt 0.8273 0.3937
vt 0.9793 0.3988
vt 0.9720 0.6396
vt 0.6879 0.3737
vt 0.8280 0.3733
vt 0.0654 0.7692
vt 0.2822 0.7644
vt 0.2823 0.7776
vt 0.0657 0.7992
vt 0.9692 0.6499
vt 0.9794 0.3744
vt 0.6589 0.7427
vt 0.6801 0.7216
vt 0.6208 0.7323
vt 0.6311 0.6504
vt 0.5255 0.7954
vt 0.5137 0.7954
vt 0.5137 0.7913
vt 0.5255 0.7913
vt 0.7450 0.6312
vt 0.7245 0.5883
vt 0.7510 0.6425
vt 0.7187 0.5745
vt 0.3868 0.8025
vt 0.3720 0.7495
vt 0.4253 0.7503
vt 0.4136 0.8032
vt 0.4834 0.7462
vt 0.4834 0.8445
vt 0.7542 0.8045
vt 0.8907 0.8045
vt 0.7542 0.7207
vt 0.8858 0.7207
vt 0.7542 0.6615
vt 0.8858 0.6615
vt 0.8943 0.8361
vt 0.9089 0.7827
vt 0.9638 0.9186
vt 0.9559 0.8300
vt 0.9667 0.7834
vt 0.9827 0.8400
vt 0.8918 0.8367
vt 0.9095 0.7834
vn -0.0000 0.0000 1.0000
vn 0.0000 1.0000 0.0000
vn 0.0000 -1.0000 0.0000
vn -1.0000 0.0000 0.0000
vn 1.0000 0.0000 0.0000
vn 0.9994 -0.0318 0.0159
vn 0.0035 -0.0578 0.9983
vn 0.0000 0.8924 -0.4512
vn -0.0004 -1.0000 0.0000
vn -0.0039 0.0308 0.9995
vn 0.0109 0.0060 0.9999
vn -0.0144 0.0079 0.9999
vn 0.0022 0.0358 0.9994
vn -0.0147 -0.5124 0.8586
vn -0.1722 -0.1833 0.9679
vn 0.0352 -0.9994 0.0000
vn 0.9620 0.2730 0.0000
vn -0.0000 0.0285 0.9996
vn -0.8731 0.4876 0.0000
vn 0.9727 -0.2320 0.0000
vn 0.0537 0.0321 0.9980
vn -0.5560 -0.8311 0.0000
vn 0.0291 -0.9996 0.0000
vn -0.0051 -0.2909 0.9567
vn -0.0837 -0.9965 0.0000
vn 0.9145 0.4046 -0.0000
vn -0.8760 -0.4822 0.0000
vn -0.0846 -0.2936 0.9522
vn -0.0052 -0.0275 0.9996
vn -0.0040 -0.0440 0.9990
vn 0.1033 0.9890 0.1059
vn -0.6087 0.7887 0.0861
vn 0.1354 -0.0311 0.9903
vn 0.4598 -0.8880 0.0000
vn 0.9978 -0.0655 0.0000
vn -0.4404 -0.8978 0.0000
vn -0.0693 0.9976 0.0000
vn -0.9978 -0.0659 0.0000
vn 0.0008 -1.0000 0.0000
vn -0.0008 1.0000 0.0000
vn -1.0000 -0.0008 0.0000
vn 1.0000 0.0008 0.0000
vn 0.0635 -0.5281 0.8468
vn -0.1224 -0.5276 0.8407
vn -0.0064 -0.0546 0.9985
vn 0.0258 0.0242 0.9994
vn 0.0000 0.0000 -1.0000
vn 0.0033 -0.0891 -0.9960
vn 0.0146 0.0198 -0.9997
vn -0.0111 0.0269 -0.9996
vn 0.0081 0.0143 -0.9999
vn -0.0144 0.0079 -0.9999
vn 0.0022 0.0358 -0.9994
vn -0.0147 -0.5124 -0.8586
vn -0.1722 -0.1833 -0.9679
vn -0.0000 0.0285 -0.9996
vn 0.0537 0.0321 -0.9980
vn -0.0051 -0.2909 -0.9567
vn -0.0846 -0.2936 -0.9522
vn -0.0052 -0.0275 -0.9996
vn -0.0040 -0.0440 -0.9990
vn 0.1033 0.9890 -0.1059
vn -0.6087 0.7887 -0.0861
vn 0.1354 -0.0311 -0.9903
vn 0.0635 -0.5281 -0.8468
vn -0.1224 -0.5276 -0.8407
vn 0.0110 -0.0727 -0.9973
vn 0.0388 -0.0041 -0.9992
vn -0.0000 0.9659 0.2591
vn -0.0000 0.1297 0.9916
vn -0.0000 -0.8354 0.5497
vn 0.9961 -0.0764 0.0443
usemtl Material.001
s off
f 12/1/1 2/2/1 1/3/1 13/4/1
f 12/1/2 89/5/2 80/6/2 2/2/2
f 13/4/3 90/7/3 83/8/3 3/9/3
f 2/10/4 80/11/4 81/12/4 1/13/4
f 84/14/5 6/15/5 5/16/5 85/17/5
f 40/18/6 119/19/6 125/20/6 124/21/6
f 10/22/7 3/9/7 7/23/7 11/24/7
f 119/25/8 88/26/8 123/27/8 125/28/8
f 38/29/9 115/30/9 94/31/9 17/32/9
f 3/9/4 83/8/4 86/33/4 7/23/4
f 85/17/5 5/16/5 8/34/5 87/35/5
f 7/23/4 86/33/4 115/30/4 38/29/4
f 4/36/10 3/9/10 10/22/10 9/37/10
f 5/16/11 39/38/11 41/39/11 8/34/11
f 82/40/2 4/36/2 9/37/2 88/41/2
f 1/13/4 81/12/4 91/42/4 14/43/4
f 4/36/2 82/40/2 89/5/2 12/1/2
f 4/36/12 12/1/12 13/4/12 3/9/12
f 14/44/3 91/45/3 92/46/3 15/47/3
f 90/7/5 13/4/5 15/47/5 92/46/5
f 13/4/1 1/3/1 14/44/1 15/47/1
f 21/48/13 20/49/13 19/50/13 18/51/13
f 8/34/14 41/39/14 16/52/14
f 22/53/15 25/54/15 23/55/15
f 19/50/16 96/56/16 95/57/16 18/51/16
f 97/58/17 21/48/17 18/51/17 95/57/17
f 35/59/18 34/60/18 33/61/18 32/62/18
f 17/63/19 94/64/19 98/65/19 20/49/19
f 93/66/20 16/67/20 21/48/20 97/58/20
f 16/67/21 17/63/21 20/49/21 21/48/21
f 99/68/22 22/53/22 23/55/22 100/69/22
f 24/70/23 101/71/23 100/69/23 23/55/23
f 23/55/24 25/72/24 24/70/24
f 28/73/25 105/74/25 103/75/25 26/76/25
f 87/35/26 8/34/26 25/72/26 102/77/26
f 16/52/27 93/78/27 101/71/27 24/70/27
f 8/34/28 16/52/28 24/70/28 25/72/28
f 27/79/29 26/76/29 30/80/29 31/81/29
f 29/82/30 28/73/30 26/76/30 27/79/30
f 106/83/31 29/82/31 27/79/31 104/84/31
f 102/85/32 25/54/32 29/82/32 106/83/32
f 25/54/33 22/53/33 28/73/33 29/82/33
f 22/53/34 99/68/34 105/74/34 28/73/34
f 108/86/35 31/87/35 30/88/35 107/89/35
f 26/76/36 103/75/36 107/90/36 30/80/36
f 104/84/37 27/79/37 31/81/37 108/91/37
f 33/61/38 110/92/38 109/93/38 32/62/38
f 112/94/39 35/59/39 32/62/39 109/93/39
f 96/56/39 19/50/39 35/59/39 112/94/39
f 20/49/40 98/65/40 111/95/40 34/60/40
f 19/50/18 20/49/18 34/60/18 35/59/18
f 37/96/40 114/97/40 113/98/40 36/99/40
f 33/61/1 34/60/1 37/100/1 36/101/1
f 110/92/41 33/61/41 36/101/41 113/102/41
f 34/60/42 111/95/42 114/103/42 37/100/42
f 7/23/43 38/29/43 17/32/43 11/24/43
f 16/52/44 41/39/44 11/24/44 17/32/44
f 41/39/45 39/38/45 10/22/45 11/24/45
f 40/104/46 39/38/46 5/16/46 6/15/46
f 119/105/2 40/104/2 6/15/2 84/14/2
f 53/106/47 54/107/47 42/108/47 43/109/47
f 53/106/2 43/109/2 80/6/2 89/5/2
f 54/107/3 44/110/3 83/111/3 90/112/3
f 43/113/4 42/114/4 81/12/4 80/11/4
f 84/14/5 85/17/5 46/115/5 47/116/5
f 88/41/2 119/105/2 117/117/2 50/118/2
f 51/119/48 52/120/48 48/121/48 44/110/48
f 50/118/49 117/117/49 116/122/49 51/119/49
f 79/123/9 58/124/9 94/125/9 115/126/9
f 44/110/4 48/121/4 86/127/4 83/111/4
f 85/17/5 87/35/5 49/128/5 46/115/5
f 48/121/4 79/123/4 115/126/4 86/127/4
f 45/129/50 50/118/50 51/119/50 44/110/50
f 46/115/51 49/128/51 118/130/51 116/122/51
f 82/40/2 88/41/2 50/118/2 45/129/2
f 42/114/4 55/131/4 91/42/4 81/12/4
f 45/129/2 53/106/2 89/5/2 82/40/2
f 45/129/52 44/110/52 54/107/52 53/106/52
f 55/132/3 56/133/3 92/134/3 91/135/3
f 90/112/5 92/134/5 56/133/5 54/107/5
f 54/107/47 56/133/47 55/132/47 42/108/47
f 62/136/53 59/137/53 60/138/53 61/139/53
f 49/128/54 57/140/54 118/130/54
f 63/141/55 64/142/55 66/143/55
f 60/138/16 59/137/16 95/144/16 96/145/16
f 97/146/17 95/144/17 59/137/17 62/136/17
f 76/147/56 73/148/56 74/149/56 75/150/56
f 58/151/19 61/139/19 98/152/19 94/153/19
f 93/154/20 97/146/20 62/136/20 57/155/20
f 57/155/57 62/136/57 61/139/57 58/151/57
f 99/156/22 100/157/22 64/142/22 63/141/22
f 65/158/23 64/142/23 100/157/23 101/159/23
f 64/142/58 65/158/58 66/160/58
f 69/161/25 67/162/25 103/163/25 105/164/25
f 87/35/26 102/77/26 66/160/26 49/128/26
f 57/140/27 65/158/27 101/159/27 93/165/27
f 49/128/59 66/160/59 65/158/59 57/140/59
f 68/166/60 72/167/60 71/168/60 67/162/60
f 70/169/61 68/166/61 67/162/61 69/161/61
f 106/83/62 104/170/62 68/166/62 70/169/62
f 102/85/63 106/83/63 70/169/63 66/143/63
f 66/143/64 70/169/64 69/161/64 63/141/64
f 63/141/34 69/161/34 105/164/34 99/156/34
f 108/171/35 107/172/35 71/173/35 72/174/35
f 67/162/36 71/168/36 107/175/36 103/163/36
f 104/170/37 108/176/37 72/167/37 68/166/37
f 74/149/38 73/148/38 109/177/38 110/178/38
f 112/179/39 109/177/39 73/148/39 76/147/39
f 96/145/39 112/179/39 76/147/39 60/138/39
f 61/139/40 75/150/40 111/180/40 98/152/40
f 60/138/56 76/147/56 75/150/56 61/139/56
f 78/181/40 77/182/40 113/183/40 114/184/40
f 74/149/47 77/185/47 78/186/47 75/150/47
f 110/178/41 113/187/41 77/185/41 74/149/41
f 75/150/42 78/186/42 114/188/42 111/180/42
f 48/121/65 52/120/65 58/124/65 79/123/65
f 105/189/47 106/190/47 104/191/47 103/192/47
f 103/192/47 104/191/47 108/193/47 107/194/47
f 57/140/66 58/124/66 52/120/66 118/130/66
f 118/130/67 52/120/67 51/119/67 116/122/67
f 117/117/68 47/116/68 46/115/68 116/122/68
f 119/105/2 84/14/2 47/116/2 117/117/2
f 123/27/69 122/195/69 124/196/69 125/28/69
f 122/195/70 121/197/70 120/198/70 124/196/70
f 10/199/71 39/200/71 120/198/71 121/197/71
f 39/201/72 40/18/72 124/21/72 120/202/72
f 88/203/4 9/204/4 122/205/4 123/206/4
f 9/204/4 10/207/4 121/208/4 122/205/4
